<mxfile host="app.diagrams.net" modified="2023-07-17T16:04:56.033Z" agent="Mozilla/5.0 (Windows NT 10.0; Win64; x64) AppleWebKit/537.36 (KHTML, like Gecko) Chrome/114.0.0.0 Safari/537.36" etag="tLufHhqQx4rtd7KvTKQv" version="21.6.2" type="github">
  <diagram name="Page-1" id="c37626ed-c26b-45fb-9056-f9ebc6bb27b6">
    <mxGraphModel dx="1760" dy="904" grid="1" gridSize="10" guides="1" tooltips="1" connect="1" arrows="1" fold="1" page="1" pageScale="1" pageWidth="1100" pageHeight="850" background="none" math="0" shadow="0">
      <root>
        <object label="" id="0">
          <mxCell />
        </object>
        <mxCell id="1" parent="0" />
        <mxCell id="1c7a67bf8fd3230f-83" value="Group 1" style="whiteSpace=wrap;html=1;rounded=0;shadow=0;comic=0;strokeWidth=1;fontFamily=Verdana;fontSize=14;fillColor=#f5f5f5;strokeColor=none;verticalAlign=top;fontStyle=1" parent="1" vertex="1">
          <mxGeometry x="1170" y="240" width="610" height="328.5" as="geometry" />
        </mxCell>
        <mxCell id="1c7a67bf8fd3230f-81" value="Group 3" style="whiteSpace=wrap;html=1;rounded=0;shadow=0;comic=0;strokeWidth=1;fontFamily=Verdana;fontSize=14;fillColor=#f5f5f5;strokeColor=none;fontStyle=1;verticalAlign=top;" parent="1" vertex="1">
          <mxGeometry x="440" y="780" width="1070" height="380" as="geometry" />
        </mxCell>
        <mxCell id="1c7a67bf8fd3230f-80" value="Group 2" style="whiteSpace=wrap;html=1;rounded=0;shadow=0;comic=0;strokeWidth=1;fontFamily=Verdana;fontSize=14;fillColor=#f5f5f5;strokeColor=none;fontStyle=1;verticalAlign=top;" parent="1" vertex="1">
          <mxGeometry x="390" y="248.5" width="415" height="401.5" as="geometry" />
        </mxCell>
        <mxCell id="1c7a67bf8fd3230f-14" value="Cloud" style="ellipse;shape=cloud;whiteSpace=wrap;html=1;rounded=0;shadow=0;comic=0;strokeWidth=1;fontFamily=Verdana;fontSize=12;fillColor=#0050ef;fontColor=#ffffff;strokeColor=#001DBC;" parent="1" vertex="1">
          <mxGeometry x="1470" y="323.5" width="288" height="130" as="geometry" />
        </mxCell>
        <mxCell id="1c7a67bf8fd3230f-46" value="" style="shape=mxgraph.cisco.routers.router;html=1;dashed=0;fillColor=#036897;strokeColor=#ffffff;strokeWidth=2;verticalLabelPosition=bottom;verticalAlign=top;rounded=0;shadow=0;comic=0;fontFamily=Verdana;fontSize=12;" parent="1" vertex="1">
          <mxGeometry x="900" y="353.5" width="150" height="100" as="geometry" />
        </mxCell>
        <mxCell id="BEgpedO4i2dV7gmLMCpR-1" value="" style="shape=mxgraph.cisco.buildings.generic_building;sketch=0;html=1;pointerEvents=1;dashed=0;fillColor=#036897;strokeColor=#ffffff;strokeWidth=2;verticalLabelPosition=bottom;verticalAlign=top;align=center;outlineConnect=0;" parent="1" vertex="1">
          <mxGeometry x="1250" y="323.5" width="90" height="136" as="geometry" />
        </mxCell>
        <mxCell id="BEgpedO4i2dV7gmLMCpR-2" value="" style="shape=mxgraph.cisco.servers.software_based_server;sketch=0;html=1;pointerEvents=1;dashed=0;fillColor=#036897;strokeColor=#ffffff;strokeWidth=2;verticalLabelPosition=bottom;verticalAlign=top;align=center;outlineConnect=0;" parent="1" vertex="1">
          <mxGeometry x="520" y="315" width="150" height="177" as="geometry" />
        </mxCell>
        <mxCell id="BEgpedO4i2dV7gmLMCpR-7" value="" style="shape=mxgraph.cisco.computers_and_peripherals.terminal;sketch=0;html=1;pointerEvents=1;dashed=0;fillColor=#036897;strokeColor=#ffffff;strokeWidth=2;verticalLabelPosition=bottom;verticalAlign=top;align=center;outlineConnect=0;" parent="1" vertex="1">
          <mxGeometry x="540" y="850" width="180" height="150" as="geometry" />
        </mxCell>
        <mxCell id="BEgpedO4i2dV7gmLMCpR-8" value="" style="shape=mxgraph.cisco.computers_and_peripherals.terminal;sketch=0;html=1;pointerEvents=1;dashed=0;fillColor=#036897;strokeColor=#ffffff;strokeWidth=2;verticalLabelPosition=bottom;verticalAlign=top;align=center;outlineConnect=0;" parent="1" vertex="1">
          <mxGeometry x="860" y="850" width="180" height="150" as="geometry" />
        </mxCell>
        <mxCell id="BEgpedO4i2dV7gmLMCpR-9" value="" style="shape=mxgraph.cisco.computers_and_peripherals.terminal;sketch=0;html=1;pointerEvents=1;dashed=0;fillColor=#036897;strokeColor=#ffffff;strokeWidth=2;verticalLabelPosition=bottom;verticalAlign=top;align=center;outlineConnect=0;" parent="1" vertex="1">
          <mxGeometry x="1180" y="850" width="180" height="150" as="geometry" />
        </mxCell>
        <mxCell id="BEgpedO4i2dV7gmLMCpR-18" value="" style="endArrow=none;html=1;rounded=0;strokeWidth=2;entryX=0.5;entryY=0.98;entryDx=0;entryDy=0;entryPerimeter=0;exitX=0.5;exitY=0;exitDx=0;exitDy=0;exitPerimeter=0;" parent="1" source="BEgpedO4i2dV7gmLMCpR-9" target="BEgpedO4i2dV7gmLMCpR-20" edge="1">
          <mxGeometry width="50" height="50" relative="1" as="geometry">
            <mxPoint x="1270" y="905" as="sourcePoint" />
            <mxPoint x="1110" y="705" as="targetPoint" />
          </mxGeometry>
        </mxCell>
        <mxCell id="BEgpedO4i2dV7gmLMCpR-19" value="" style="endArrow=none;html=1;rounded=0;strokeWidth=2;strokeColor=#000000;entryX=0.5;entryY=0.98;entryDx=0;entryDy=0;entryPerimeter=0;exitX=0.5;exitY=0;exitDx=0;exitDy=0;exitPerimeter=0;" parent="1" source="BEgpedO4i2dV7gmLMCpR-7" target="BEgpedO4i2dV7gmLMCpR-20" edge="1">
          <mxGeometry width="50" height="50" relative="1" as="geometry">
            <mxPoint x="670" y="905" as="sourcePoint" />
            <mxPoint x="870" y="710" as="targetPoint" />
          </mxGeometry>
        </mxCell>
        <mxCell id="BEgpedO4i2dV7gmLMCpR-20" value="" style="shape=mxgraph.cisco.switches.workgroup_switch;sketch=0;html=1;pointerEvents=1;dashed=0;fillColor=#036897;strokeColor=#ffffff;strokeWidth=2;verticalLabelPosition=bottom;verticalAlign=top;align=center;outlineConnect=0;" parent="1" vertex="1">
          <mxGeometry x="840" y="580" width="270" height="110" as="geometry" />
        </mxCell>
        <mxCell id="BEgpedO4i2dV7gmLMCpR-23" value="" style="endArrow=none;html=1;rounded=0;strokeWidth=2;strokeColor=#000000;entryX=0.5;entryY=0.98;entryDx=0;entryDy=0;entryPerimeter=0;exitX=0.5;exitY=0;exitDx=0;exitDy=0;exitPerimeter=0;" parent="1" source="BEgpedO4i2dV7gmLMCpR-8" target="BEgpedO4i2dV7gmLMCpR-20" edge="1">
          <mxGeometry width="50" height="50" relative="1" as="geometry">
            <mxPoint x="930" y="900" as="sourcePoint" />
            <mxPoint x="980" y="850" as="targetPoint" />
          </mxGeometry>
        </mxCell>
        <mxCell id="BEgpedO4i2dV7gmLMCpR-24" value="" style="endArrow=none;html=1;rounded=0;strokeWidth=2;strokeColor=#000000;exitX=0.5;exitY=0;exitDx=0;exitDy=0;exitPerimeter=0;" parent="1" source="BEgpedO4i2dV7gmLMCpR-20" target="1c7a67bf8fd3230f-46" edge="1">
          <mxGeometry width="50" height="50" relative="1" as="geometry">
            <mxPoint x="960" y="530" as="sourcePoint" />
            <mxPoint x="1010" y="480" as="targetPoint" />
          </mxGeometry>
        </mxCell>
        <mxCell id="BEgpedO4i2dV7gmLMCpR-25" value="" style="endArrow=none;html=1;rounded=0;strokeWidth=2;strokeColor=#000000;entryX=0;entryY=0.6;entryDx=0;entryDy=0;entryPerimeter=0;exitX=1;exitY=0.5;exitDx=0;exitDy=0;exitPerimeter=0;" parent="1" source="1c7a67bf8fd3230f-46" target="BEgpedO4i2dV7gmLMCpR-1" edge="1">
          <mxGeometry width="50" height="50" relative="1" as="geometry">
            <mxPoint x="1230" y="420" as="sourcePoint" />
            <mxPoint x="1280" y="370" as="targetPoint" />
          </mxGeometry>
        </mxCell>
        <mxCell id="BEgpedO4i2dV7gmLMCpR-28" value="" style="endArrow=none;html=1;rounded=0;strokeWidth=2;strokeColor=#000000;entryX=0;entryY=0.5;entryDx=0;entryDy=0;entryPerimeter=0;" parent="1" source="BEgpedO4i2dV7gmLMCpR-2" target="1c7a67bf8fd3230f-46" edge="1">
          <mxGeometry width="50" height="50" relative="1" as="geometry">
            <mxPoint x="780" y="425" as="sourcePoint" />
            <mxPoint x="830" y="375" as="targetPoint" />
          </mxGeometry>
        </mxCell>
        <mxCell id="BEgpedO4i2dV7gmLMCpR-29" value="" style="endArrow=none;html=1;rounded=0;strokeWidth=2;strokeColor=#000000;entryX=0.16;entryY=0.55;entryDx=0;entryDy=0;entryPerimeter=0;" parent="1" source="BEgpedO4i2dV7gmLMCpR-1" target="1c7a67bf8fd3230f-14" edge="1">
          <mxGeometry width="50" height="50" relative="1" as="geometry">
            <mxPoint x="1380" y="413.5" as="sourcePoint" />
            <mxPoint x="1430" y="363.5" as="targetPoint" />
          </mxGeometry>
        </mxCell>
        <mxCell id="BEgpedO4i2dV7gmLMCpR-30" value="&lt;font style=&quot;font-size: 24px;&quot;&gt;192.169.232.146/24&lt;/font&gt;" style="text;html=1;align=center;verticalAlign=middle;resizable=0;points=[];autosize=1;strokeColor=none;fillColor=none;" parent="1" vertex="1">
          <mxGeometry x="510" y="1080" width="240" height="40" as="geometry" />
        </mxCell>
        <mxCell id="BEgpedO4i2dV7gmLMCpR-31" value="&lt;font style=&quot;font-size: 22px;&quot;&gt;192.168.232.147/24&lt;/font&gt;" style="text;html=1;align=center;verticalAlign=middle;resizable=0;points=[];autosize=1;strokeColor=none;fillColor=none;" parent="1" vertex="1">
          <mxGeometry x="840" y="1080" width="220" height="40" as="geometry" />
        </mxCell>
        <mxCell id="BEgpedO4i2dV7gmLMCpR-32" value="&lt;font style=&quot;font-size: 22px;&quot;&gt;192.168.232.148/24&lt;/font&gt;" style="text;html=1;align=center;verticalAlign=middle;resizable=0;points=[];autosize=1;strokeColor=none;fillColor=none;" parent="1" vertex="1">
          <mxGeometry x="1160" y="1080" width="220" height="40" as="geometry" />
        </mxCell>
        <mxCell id="BEgpedO4i2dV7gmLMCpR-33" value="&lt;font style=&quot;font-size: 24px;&quot;&gt;192.169.232.144/24&lt;/font&gt;" style="text;html=1;align=center;verticalAlign=middle;resizable=0;points=[];autosize=1;strokeColor=none;fillColor=none;" parent="1" vertex="1">
          <mxGeometry x="470" y="580" width="240" height="40" as="geometry" />
        </mxCell>
        <mxCell id="BEgpedO4i2dV7gmLMCpR-34" value="&lt;font style=&quot;font-size: 24px;&quot;&gt;worker 1&lt;/font&gt;" style="whiteSpace=wrap;html=1;fillColor=#0050ef;fontColor=#ffffff;strokeColor=default;" parent="1" vertex="1">
          <mxGeometry x="570" y="1015" width="120" height="45" as="geometry" />
        </mxCell>
        <mxCell id="BEgpedO4i2dV7gmLMCpR-35" value="&lt;font style=&quot;font-size: 24px;&quot;&gt;worker 2&lt;/font&gt;" style="whiteSpace=wrap;html=1;fillColor=#0050ef;fontColor=#ffffff;strokeColor=default;" parent="1" vertex="1">
          <mxGeometry x="890" y="1015" width="120" height="45" as="geometry" />
        </mxCell>
        <mxCell id="BEgpedO4i2dV7gmLMCpR-36" value="&lt;font style=&quot;font-size: 24px;&quot;&gt;worker 3&lt;/font&gt;" style="whiteSpace=wrap;html=1;fillColor=#0050ef;fontColor=#ffffff;strokeColor=default;" parent="1" vertex="1">
          <mxGeometry x="1210" y="1015" width="120" height="45" as="geometry" />
        </mxCell>
        <mxCell id="BEgpedO4i2dV7gmLMCpR-37" value="&lt;font style=&quot;font-size: 17px;&quot;&gt;cloud&lt;/font&gt;" style="whiteSpace=wrap;html=1;fillColor=#0050ef;fontColor=#ffffff;strokeColor=#001DBC;" parent="1" vertex="1">
          <mxGeometry x="1554" y="459.5" width="120" height="40" as="geometry" />
        </mxCell>
        <mxCell id="BEgpedO4i2dV7gmLMCpR-38" value="&lt;font style=&quot;font-size: 17px;&quot;&gt;ISP&lt;br&gt;&lt;/font&gt;" style="whiteSpace=wrap;html=1;fillColor=#0050ef;fontColor=#ffffff;strokeColor=#001DBC;" parent="1" vertex="1">
          <mxGeometry x="1240" y="480" width="120" height="40" as="geometry" />
        </mxCell>
        <mxCell id="BEgpedO4i2dV7gmLMCpR-40" value="&lt;font style=&quot;font-size: 24px;&quot;&gt;Master&lt;/font&gt;" style="whiteSpace=wrap;html=1;fillColor=#0050ef;fontColor=#ffffff;strokeColor=#001DBC;" parent="1" vertex="1">
          <mxGeometry x="520" y="520" width="120" height="40" as="geometry" />
        </mxCell>
      </root>
    </mxGraphModel>
  </diagram>
</mxfile>
